<mxfile host="app.diagrams.net" modified="2023-11-17T13:54:24.942Z" agent="Mozilla/5.0 (Windows NT 10.0; Win64; x64; rv:109.0) Gecko/20100101 Firefox/119.0" etag="L_r7Ol-_Vf6YDadRJ3_F" version="22.1.3" type="google">
  <diagram name="Страница — 1" id="A6CLCLD7iidcXqMGADS0">
    <mxGraphModel dx="1222" dy="631" grid="1" gridSize="10" guides="1" tooltips="1" connect="1" arrows="1" fold="1" page="1" pageScale="1" pageWidth="827" pageHeight="1169" math="0" shadow="0">
      <root>
        <mxCell id="0" />
        <mxCell id="1" parent="0" />
      </root>
    </mxGraphModel>
  </diagram>
</mxfile>
